# xmcd
# Track frame offsets:
# 150
# 17404
# 35524
# 55365
# 70290
# 83942
# 99612
# 122766
# 147452
# 161100
#
# Disc length: 2409 seconds
# Revision: 0
# Processed by: cddbd v1.5.2PL0 Copyright (c) Steve Scherf et al.
# Submitted via: VisiTrax 2.11.2.271 - For more info visit www.synapsa.com
#
DISCID=8b09670a
DTITLE=Round Mountain Girls - One Step Closer
DYEAR=2010
DGENRE=Country
TTITLE0=Faith
TTITLE1=Mobile Love
TTITLE2=Chop Me Down
TTITLE3=Move On
TTITLE4=One Step Closer
TTITLE5=All My Life
TTITLE6=Mos Vos
TTITLE7=Blackberry Blossom
TTITLE8=Or Is It Just Me ?
TTITLE9=Secret Men's Business
EXTD=
EXTT0=
EXTT1=
EXTT2=
EXTT3=
EXTT4=
EXTT5=
EXTT6=
EXTT7=
EXTT8=
EXTT9=
PLAYORDER=
